<?xml version="1.0" standalone="no"?>
<!DOCTYPE svg PUBLIC "-//W3C//DTD SVG 20010904//EN"
 "http://www.w3.org/TR/2001/REC-SVG-20010904/DTD/svg10.dtd">
<svg version="1.0" xmlns="http://www.w3.org/2000/svg"
 width="512.000000pt" height="512.000000pt" viewBox="0 0 512.000000 512.000000"
 preserveAspectRatio="xMidYMid meet">
<metadata>
Created by potrace 1.14, written by Peter Selinger 2001-2017
</metadata>
<g transform="translate(0.000000,512.000000) scale(0.100000,-0.100000)"
fill="#000000" stroke="none">
<path d="M3933 3729 c-2 -23 3 -25 10 -4 4 8 3 16 -1 19 -4 3 -9 -4 -9 -15z"/>
<path d="M3860 3725 c0 -2 6 -8 13 -14 10 -8 14 -7 14 2 0 8 -6 14 -14 14 -7
0 -13 -1 -13 -2z"/>
<path d="M3955 3720 c-3 -5 -3 -10 2 -10 4 0 1 -5 -7 -11 -12 -8 -12 -10 -1
-7 8 2 15 12 17 21 3 19 -2 22 -11 7z"/>
<path d="M3999 3693 c-12 -16 -12 -17 2 -6 9 7 20 9 24 5 5 -4 5 -1 1 6 -9 16
-11 15 -27 -5z"/>
<path d="M3838 3693 c7 -3 16 -2 19 1 4 3 -2 6 -13 5 -11 0 -14 -3 -6 -6z"/>
<path d="M3895 3690 c-4 -6 -11 -7 -17 -4 -6 4 -9 3 -6 -2 3 -5 0 -15 -8 -22
-8 -7 -14 -11 -14 -8 0 3 -15 -11 -34 -30 -21 -22 -40 -33 -47 -28 -8 4 -9 3
-5 -4 4 -7 1 -12 -8 -12 -9 0 -13 6 -10 14 3 8 1 16 -4 20 -10 6 -9 -30 1 -40
8 -9 -1 -24 -14 -24 -6 0 -8 4 -4 9 3 5 0 13 -6 17 -7 4 -9 3 -5 -4 3 -5 0
-13 -6 -15 -10 -4 -10 -6 0 -6 6 -1 12 -6 12 -12 0 -6 -7 -9 -15 -5 -10 3 -15
-1 -15 -11 0 -16 -27 -42 -45 -42 -5 0 -1 6 9 14 11 8 21 21 22 28 1 6 5 20 9
30 5 11 3 17 -6 17 -7 0 -9 -3 -6 -6 9 -10 -12 -46 -23 -39 -6 3 -7 0 -4 -8 3
-8 1 -18 -5 -21 -6 -4 -8 -13 -4 -21 4 -11 1 -13 -11 -9 -9 3 -13 11 -9 17 4
6 1 7 -6 2 -9 -5 -10 -10 -2 -18 8 -8 3 -19 -16 -39 -30 -32 -55 -37 -47 -10
5 14 3 14 -11 -3 -14 -17 -17 -18 -26 -5 -9 13 -10 13 -6 0 2 -8 11 -15 20
-15 8 0 19 -4 23 -8 4 -4 3 -7 -2 -7 -6 0 -27 -16 -48 -35 -43 -39 -56 -43
-51 -17 2 9 4 21 4 25 1 5 6 5 11 2 6 -4 8 -11 5 -16 -3 -5 1 -6 11 -2 15 5
15 7 0 15 -9 5 -14 15 -10 21 3 7 -3 3 -13 -9 -10 -11 -25 -19 -33 -17 -13 4
-13 3 -1 -5 27 -19 20 -52 -16 -79 -29 -23 -37 -24 -60 -14 -14 6 -28 9 -31 6
-3 -3 1 -5 8 -5 11 0 11 -3 2 -12 -7 -7 -12 -17 -12 -23 0 -5 5 -3 10 5 6 10
10 11 10 3 0 -18 -32 -53 -47 -53 -7 0 -13 5 -13 10 0 6 -5 10 -12 10 -7 0 -6
-6 4 -17 13 -16 13 -20 -2 -34 -9 -8 -22 -13 -30 -11 -9 3 -10 0 -4 -9 6 -12
5 -12 -8 -1 -14 11 -16 10 -11 -6 2 -11 1 -22 -4 -25 -5 -3 -10 6 -11 20 -1
15 -5 29 -8 32 -3 3 -5 -5 -3 -19 4 -32 -10 -72 -22 -65 -5 4 -9 1 -9 -6 0 -7
-3 -9 -7 -6 -3 4 -11 -3 -17 -16 -7 -12 -17 -22 -24 -22 -7 0 -11 -3 -9 -7 4
-11 -56 -53 -71 -50 -8 2 -11 -1 -8 -6 3 -5 -7 -21 -23 -35 -26 -23 -30 -24
-45 -9 -10 11 -16 12 -16 4 0 -7 5 -12 10 -12 17 0 11 -18 -14 -45 -14 -15
-22 -33 -20 -40 3 -7 1 -16 -5 -20 -7 -4 -8 1 -4 12 6 17 5 17 -14 0 -19 -16
-33 -14 -33 6 0 5 7 6 16 3 10 -4 13 -2 8 6 -5 7 -3 8 6 3 9 -6 11 -4 5 5 -6
9 -4 11 5 5 9 -6 11 -4 5 5 -5 7 -4 11 1 8 5 -3 18 6 28 21 l20 26 -22 -18
c-11 -11 -26 -16 -32 -12 -6 3 -10 3 -9 -2 4 -22 -2 -25 -17 -7 -14 18 -15 18
-4 -4 11 -21 10 -23 -8 -18 -12 4 -28 -1 -43 -13 -13 -11 -18 -20 -11 -21 6 0
12 6 12 13 0 8 4 7 10 -3 8 -13 10 -12 10 3 0 9 5 17 10 17 7 0 7 -6 1 -19
-15 -27 -67 -22 -91 9 -11 14 -20 20 -20 13 0 -6 5 -15 10 -18 25 -15 3 -20
-92 -20 -92 0 -105 2 -125 22 -16 16 -18 24 -10 34 9 10 7 10 -6 0 -17 -13
-17 -15 3 -33 25 -23 21 -33 -9 -23 -12 3 -18 11 -15 17 5 7 2 8 -5 4 -7 -5
-10 -15 -6 -23 4 -12 3 -13 -8 -5 -8 7 -17 9 -21 5 -13 -13 -145 -10 -150 4
-7 17 6 17 23 1 11 -10 12 -10 7 -1 -5 9 -2 11 8 7 9 -3 16 -1 16 6 0 6 -5 8
-12 4 -8 -5 -9 -2 -5 9 6 16 4 16 -21 2 -15 -8 -34 -19 -42 -26 -13 -9 -12
-10 3 -5 9 3 17 1 17 -3 0 -5 -28 -8 -62 -6 -88 3 -88 3 -82 20 4 8 1 15 -6
15 -6 0 -9 4 -6 8 3 5 -1 9 -9 9 -19 0 -19 -13 -1 -20 18 -7 14 -42 -5 -43 -8
0 -22 4 -31 8 -12 6 -18 5 -18 -3 0 -8 -4 -8 -15 1 -8 7 -15 9 -15 5 0 -4 -7
-2 -15 5 -8 7 -12 16 -9 21 3 5 -6 14 -20 21 -14 6 -26 16 -26 21 0 5 12 2 26
-8 15 -9 23 -12 19 -6 -5 8 2 10 22 5 15 -4 25 -4 22 0 -4 4 -21 8 -39 11 -18
2 -42 13 -54 24 -12 12 -26 21 -30 21 -5 0 2 -9 15 -20 13 -10 18 -19 12 -20
-7 0 -13 4 -13 8 0 5 -11 15 -24 22 -31 16 -39 35 -25 63 9 19 7 18 -10 -3
-15 -18 -21 -20 -21 -10 0 9 6 22 13 29 8 9 8 12 0 7 -6 -3 -13 -3 -16 1 -2 5
-2 2 -1 -4 2 -7 -1 -13 -7 -13 -6 0 -7 -5 -3 -12 4 -6 3 -8 -3 -5 -5 4 -9 22
-8 41 2 32 1 34 -16 25 -23 -12 -25 -21 -4 -13 8 4 15 1 15 -4 0 -23 -18 -20
-43 7 -23 27 -24 30 -9 46 15 15 13 15 -13 -1 -16 -11 -26 -13 -22 -6 5 7 3
12 -3 12 -6 0 -8 5 -5 11 4 6 1 9 -6 7 -22 -5 -78 42 -71 60 4 11 1 14 -10 9
-20 -7 -18 21 3 34 8 5 10 9 5 9 -5 0 -18 -8 -28 -17 -17 -15 -19 -15 -33 3
-8 10 -13 27 -11 37 5 19 -10 24 -17 5 -3 -9 -17 -1 -40 22 -41 40 -45 50 -17
43 11 -3 18 -9 15 -13 -3 -4 4 -19 16 -31 l20 -24 -15 26 c-9 14 -13 29 -10
32 4 4 -2 10 -12 14 -10 3 -22 11 -26 17 -5 7 -11 6 -20 -3 -11 -11 -11 -13 1
-6 10 6 12 4 7 -4 -12 -19 -46 17 -42 43 2 12 1 15 -1 9 -3 -7 -9 -13 -15 -13
-6 0 -7 8 -3 18 4 9 8 24 10 32 1 8 9 14 16 12 8 -2 11 0 6 4 -4 4 -16 8 -27
9 -15 1 -17 -2 -10 -15 6 -11 5 -23 -3 -35 -12 -15 -14 -15 -26 -1 -7 8 -9 21
-5 27 5 8 2 11 -7 7 -14 -6 -63 25 -54 34 2 2 -13 4 -34 5 -50 1 -82 18 -75
41 5 16 5 16 -6 -1 -6 -9 -8 -22 -5 -27 7 -11 -41 7 -64 24 -11 8 -13 8 -7 -1
11 -19 -5 -16 -21 5 -8 9 -12 12 -9 6 3 -7 3 -33 0 -58 -6 -37 -10 -46 -23
-41 -14 4 -14 4 1 -8 11 -9 13 -18 7 -29 -6 -11 -5 -19 1 -23 7 -5 8 -11 1
-19 -5 -6 -8 -24 -7 -39 2 -15 -1 -30 -7 -34 -6 -3 -7 -1 -3 5 4 7 2 12 -3 12
-15 0 -14 -27 2 -33 6 -2 9 -8 5 -12 -4 -4 -14 -2 -23 5 -10 8 -15 9 -15 1 0
-6 5 -11 11 -11 6 0 9 -7 6 -15 -4 -8 -1 -17 5 -21 6 -4 8 -3 4 4 -3 6 -2 13
3 16 5 4 8 -2 6 -11 -2 -10 -4 -21 -4 -25 -1 -5 -6 -8 -12 -8 -5 0 -7 5 -4 10
3 6 1 10 -5 10 -7 0 -10 -6 -7 -14 3 -7 0 -19 -6 -26 -10 -10 -7 -10 12 0 22
12 24 11 18 -11 -4 -13 -7 -32 -7 -41 0 -14 -26 -31 -52 -33 -3 0 -10 -3 -14
-7 -7 -8 21 -4 47 7 14 5 16 0 12 -32 -2 -21 -4 -49 -4 -63 0 -14 -2 -32 -6
-40 -11 -29 -10 -120 1 -120 6 0 5 -4 -2 -9 -10 -6 -11 -19 -7 -45 4 -20 10
-35 13 -32 7 7 41 -57 35 -66 -2 -5 2 -8 9 -8 7 -1 2 -10 -12 -22 -15 -13 -18
-19 -8 -15 10 3 20 2 23 -3 4 -6 11 -10 18 -10 6 0 2 7 -9 15 -10 8 -14 15 -7
15 13 0 26 -17 30 -39 1 -8 7 -17 14 -22 10 -6 10 -11 -2 -25 -8 -10 -9 -15
-3 -11 16 9 54 -30 48 -48 -4 -8 -1 -15 7 -15 7 0 10 -3 6 -6 -3 -4 3 -14 15
-24 21 -17 17 -47 -4 -34 -7 4 -8 2 -4 -4 9 -16 36 -3 36 17 0 10 8 17 20 17
24 0 25 -9 4 -30 -14 -15 -14 -16 5 -13 11 2 24 7 28 12 5 4 2 5 -6 0 -9 -5
-12 -3 -9 6 3 8 13 16 23 17 10 2 15 0 11 -6 -3 -6 -1 -14 5 -18 7 -4 9 -3 5
4 -3 6 -1 14 5 18 18 11 268 12 266 1 -1 -5 4 -12 12 -15 8 -3 11 0 7 7 -4 6
-2 11 4 11 7 0 9 -8 5 -22 -6 -19 -5 -21 6 -10 7 6 18 12 23 12 6 0 0 -9 -14
-20 -27 -21 -21 -27 11 -10 10 6 19 8 19 6 0 -3 -18 -15 -41 -27 -28 -14 -40
-16 -36 -7 2 7 10 12 17 10 10 -2 11 0 2 11 -7 8 -8 18 -4 22 4 5 1 5 -7 0
-10 -6 -12 -4 -6 6 7 11 5 11 -10 -1 -10 -8 -16 -10 -13 -5 3 6 0 16 -8 23
-11 10 -14 10 -14 0 0 -8 -3 -9 -8 -3 -6 9 -57 12 -79 5 -5 -1 -11 -2 -15 -2
-3 1 -8 -4 -11 -12 -3 -7 1 -13 9 -13 7 0 16 7 19 16 6 14 8 14 20 -2 11 -15
13 -16 19 -2 4 12 10 13 25 6 10 -6 21 -7 25 -4 10 10 7 -10 -4 -27 -5 -8 -10
-10 -10 -4 0 7 -7 15 -16 18 -8 3 -12 2 -9 -4 3 -6 1 -10 -4 -10 -6 0 -11 -5
-11 -12 0 -9 3 -9 12 0 8 8 15 9 25 1 9 -8 14 -7 19 5 3 9 10 13 16 10 5 -3 4
-12 -4 -22 -10 -12 -10 -14 0 -8 6 4 12 4 13 -1 0 -4 2 -18 3 -31 2 -13 -4
-27 -13 -32 -23 -13 -4 -12 21 1 16 9 18 13 7 20 -12 7 -12 10 0 21 12 11 13
10 7 -2 -7 -13 -6 -13 6 0 17 20 35 22 35 5 0 -7 -7 -11 -15 -7 -10 3 -13 1
-8 -6 3 -6 2 -13 -4 -17 -6 -4 -8 -11 -5 -16 4 -5 1 -9 -6 -9 -7 0 -10 -3 -6
-6 3 -4 -5 -21 -18 -39 -14 -17 -25 -37 -25 -43 0 -19 -20 -24 -38 -11 -13 11
-12 8 2 -9 19 -22 10 -32 -11 -11 -8 8 -13 7 -18 -2 -5 -7 -4 -10 2 -6 6 4 17
-1 24 -10 12 -14 12 -16 0 -8 -11 6 -13 4 -8 -8 4 -11 1 -17 -8 -17 -7 0 -17
-5 -21 -12 -4 -7 -3 -8 4 -4 7 4 12 2 12 -4 0 -7 -9 -14 -21 -17 -16 -4 -17
-8 -7 -14 7 -5 8 -9 3 -9 -14 0 -18 -57 -5 -65 5 -3 10 -14 10 -23 0 -15 -2
-15 -11 -2 -9 13 -10 13 -6 0 2 -8 11 -14 21 -12 9 2 16 -4 16 -12 0 -9 -8
-13 -22 -10 -21 4 -21 4 -3 -5 11 -4 23 -7 27 -4 4 2 12 -6 18 -17 6 -11 8
-20 5 -20 -2 0 5 -11 17 -25 12 -14 23 -32 24 -41 1 -9 10 -24 18 -33 9 -10
13 -21 9 -24 -3 -4 -1 -7 6 -7 7 0 9 -4 6 -10 -3 -5 -1 -10 4 -10 6 0 11 -9
11 -21 0 -11 4 -18 9 -14 5 3 12 -4 16 -15 4 -11 11 -18 16 -14 6 3 8 -6 5
-21 -3 -15 -2 -24 2 -20 4 3 8 11 8 16 1 5 2 14 3 19 2 14 28 12 34 -2 3 -8 6
-5 6 5 1 10 6 15 12 11 6 -3 9 -15 6 -25 -3 -11 -1 -16 5 -13 5 3 8 15 5 25
-6 22 -3 23 23 9 13 -7 21 -7 26 2 4 6 3 8 -4 4 -6 -3 -14 -1 -18 5 -5 9 1 10
20 5 19 -5 26 -3 21 4 -4 7 2 9 18 6 19 -3 26 1 30 16 4 13 11 19 21 15 10 -4
13 -1 9 9 -3 8 5 31 19 52 13 20 29 49 37 64 9 18 19 24 30 20 13 -5 14 -3 3
10 -10 12 -9 18 3 28 9 7 18 10 22 7 3 -4 -1 -9 -10 -13 -14 -5 -14 -8 -2 -20
17 -18 31 -18 16 -1 -13 16 -5 27 19 27 10 0 24 7 31 16 12 15 15 14 31 -5 9
-12 15 -30 12 -39 -5 -14 -4 -14 4 -3 7 10 7 21 1 33 -8 15 -6 18 11 18 12 0
19 4 15 10 -3 5 -13 7 -23 4 -15 -5 -15 -4 -2 6 13 10 13 11 -2 6 -11 -3 -24
3 -34 17 -15 20 -16 20 -10 2 6 -18 5 -19 -7 -3 -8 10 -18 14 -22 10 -5 -4 -5
-2 -1 5 3 6 16 9 29 7 12 -3 27 -6 34 -6 7 -1 10 -5 7 -10 -3 -4 -1 -8 5 -8 5
0 11 6 14 13 2 6 3 5 2 -3 -1 -9 4 -21 11 -28 16 -14 7 -45 -10 -35 -6 4 -6 0
2 -9 9 -11 10 -18 2 -23 -5 -3 -9 -14 -9 -23 1 -15 2 -15 6 1 2 9 9 15 14 12
5 -4 5 -14 -1 -26 -6 -10 -7 -18 -3 -17 4 1 19 -4 32 -11 14 -8 21 -9 17 -2
-4 6 -2 11 4 11 7 0 10 -6 7 -14 -3 -7 -2 -17 2 -22 11 -12 32 -76 23 -70 -4
2 -16 -8 -26 -23 -11 -14 -13 -20 -6 -14 11 10 17 10 30 -2 14 -13 17 -13 17
0 0 8 -4 12 -8 9 -4 -2 -11 1 -14 7 -5 7 0 10 11 7 14 -2 18 -11 17 -31 -1
-18 2 -25 9 -21 6 4 8 3 4 -4 -3 -6 -2 -13 4 -17 6 -4 8 -11 5 -16 -4 -5 -2
-9 4 -9 11 0 9 -19 -3 -39 -7 -10 -6 -12 4 -6 10 6 12 4 7 -8 -3 -9 1 -21 11
-29 15 -12 16 -11 4 4 -9 11 -10 18 -2 23 10 6 15 -13 12 -48 -1 -10 3 -15 8
-12 9 5 14 -6 12 -26 -1 -3 12 -6 28 -5 17 1 30 4 30 7 0 12 37 17 53 8 11 -7
20 -3 31 13 9 13 16 17 16 9 0 -8 10 -3 25 13 14 15 23 32 20 37 -4 5 2 6 12
2 15 -6 16 -4 6 9 -13 15 -8 28 11 28 6 0 4 -5 -4 -11 -12 -9 -12 -10 3 -5 10
3 21 6 25 6 3 0 -3 6 -14 14 -14 11 -16 18 -8 26 9 9 14 9 19 -1 6 -8 4 -10
-6 -4 -8 5 -10 4 -6 0 13 -14 34 -14 34 1 0 7 -5 10 -10 7 -6 -4 -8 1 -4 11 4
10 3 15 -3 11 -18 -11 -11 14 9 34 14 14 16 21 8 25 -8 3 -8 5 1 5 7 1 23 -4
35 -10 21 -10 21 -10 3 5 -11 9 -23 16 -28 16 -4 0 -2 11 4 25 6 14 18 25 25
25 8 0 11 -5 7 -12 -4 -7 -3 -8 4 -4 17 10 3 36 -16 29 -10 -3 -7 3 8 15 13
11 29 18 34 15 5 -3 6 -1 2 5 -4 7 -2 12 5 12 7 0 9 3 6 7 -4 3 -15 -2 -26
-11 -14 -13 -21 -14 -27 -5 -4 7 -3 10 4 5 10 -6 28 30 24 47 -1 5 2 6 8 2 5
-3 10 1 10 9 0 9 5 16 10 16 6 0 9 -6 8 -12 -2 -8 5 -12 16 -10 12 2 16 -1 10
-9 -5 -8 -3 -10 6 -4 10 6 10 11 -3 20 -15 11 -15 14 3 30 11 10 20 15 20 11
0 -4 9 -2 19 3 15 8 22 6 35 -12 14 -19 15 -20 9 -2 -6 18 -5 18 10 6 9 -7 14
-17 11 -22 -3 -5 0 -9 6 -9 6 0 8 -5 4 -12 -4 -7 -3 -8 4 -4 8 5 9 13 2 25 -5
10 -6 22 -2 26 4 5 2 5 -5 1 -6 -3 -14 -2 -18 4 -8 14 18 13 32 -1 6 -6 9 -17
6 -24 -2 -7 5 -16 15 -20 16 -5 20 -13 17 -40 -2 -19 1 -35 7 -35 5 0 7 4 3 9
-3 5 -1 12 5 16 5 3 10 1 10 -5 0 -6 7 -19 16 -27 10 -11 13 -25 9 -42 -6 -25
-6 -25 10 -6 16 20 16 20 10 -2 -5 -17 -2 -23 9 -23 14 0 46 -52 46 -74 -1 -6
-9 7 -20 29 -11 22 -19 35 -20 29 0 -23 31 -73 44 -68 7 3 18 -7 24 -21 15
-32 15 -38 0 -29 -7 4 -8 3 -4 -4 4 -6 13 -9 20 -6 8 3 17 0 22 -7 5 -8 3 -10
-7 -4 -11 6 -11 5 -2 -5 6 -7 9 -20 6 -29 -4 -13 -3 -13 5 -2 6 8 19 12 31 8
12 -3 19 -1 16 3 -3 5 9 12 27 15 18 4 39 12 46 17 8 7 12 7 12 -1 0 -6 5 -11
12 -11 6 0 9 3 6 6 -4 3 8 19 25 36 18 16 32 33 32 36 0 4 3 6 8 4 4 -1 7 7 7
18 0 11 5 20 10 20 6 0 10 7 10 15 0 8 5 15 10 15 6 0 10 6 10 13 0 7 11 21
25 31 13 10 22 22 19 27 -3 5 0 9 6 9 6 0 8 4 5 10 -3 6 1 7 10 4 11 -5 16 -2
14 7 -2 8 3 25 10 37 9 17 19 22 34 18 20 -5 21 -4 4 8 -16 13 -16 14 0 27 14
12 16 12 8 0 -5 -9 -4 -12 3 -7 6 4 9 13 6 20 -3 7 2 21 11 30 13 12 13 16 3
16 -8 0 -25 18 -38 40 -14 22 -28 40 -32 40 -8 0 -3 54 7 70 4 6 3 10 -2 9
-20 -3 -34 2 -28 11 3 6 1 10 -5 10 -7 0 -10 -7 -6 -15 8 -22 -12 -18 -24 5
-6 11 -8 20 -5 20 3 0 -3 10 -15 22 -11 12 -20 28 -20 35 0 8 -5 11 -10 8 -6
-4 -5 5 2 19 6 14 18 26 27 27 9 0 4 5 -11 11 -16 5 -28 14 -28 19 0 6 6 7 13
3 6 -4 8 -3 4 1 -13 15 -34 14 -34 -1 0 -8 5 -14 11 -14 6 0 4 -5 -4 -11 -12
-8 -10 -9 8 -4 22 6 23 5 12 -16 l-12 -22 -18 24 c-10 13 -16 27 -14 31 3 4
-1 8 -8 8 -9 0 -9 3 2 10 8 5 12 10 8 11 -5 1 -11 2 -15 3 -5 1 -14 5 -22 10
-11 7 -11 10 3 18 9 5 21 6 26 3 5 -3 19 -1 31 6 17 9 20 8 16 -3 -2 -7 -9
-12 -15 -11 -5 1 -13 -4 -16 -13 -4 -11 -2 -12 12 -6 9 5 23 8 30 6 7 -1 8 0
3 2 -6 3 -7 12 -4 20 3 7 9 12 13 9 14 -9 23 16 11 28 -9 9 -10 7 -5 -7 6 -15
4 -17 -7 -10 -8 4 -23 10 -34 11 -16 3 -17 1 -5 -7 14 -9 13 -10 -15 -10 -3 0
-5 2 -5 6 1 3 -7 13 -17 22 -10 9 -14 14 -9 10 19 -15 28 -8 15 10 -13 16 -13
16 7 0 21 -19 39 -24 30 -10 -3 5 1 9 9 9 8 0 11 -5 8 -10 -4 -7 1 -7 13 -2
27 11 154 13 154 2 0 -5 -6 -7 -14 -4 -15 6 -16 -17 -1 -30 4 -4 5 -2 0 6 -5
9 -3 12 6 9 8 -3 13 -10 12 -16 -2 -7 4 -9 13 -5 15 5 15 7 0 15 -33 19 -2 28
92 28 185 0 220 5 252 38 16 17 27 32 24 34 -2 2 12 21 31 41 19 20 33 37 30
37 -3 0 -1 9 5 20 9 17 14 18 31 9 24 -12 50 3 28 16 -8 5 -10 4 -5 -3 11 -18
-10 -14 -25 5 -10 11 -10 14 -1 9 7 -4 12 -2 12 7 0 8 11 26 24 40 22 24 28
26 53 16 21 -7 25 -7 17 1 -6 6 -20 12 -32 13 -11 0 -18 5 -15 10 3 5 14 7 24
4 20 -5 27 9 8 15 -8 3 -8 10 2 26 8 12 19 20 26 18 7 -3 10 1 6 10 -3 7 0 14
7 14 6 0 8 5 4 12 -5 8 -2 9 10 5 13 -5 15 -3 7 12 -6 10 -7 21 -4 25 6 5 -21
10 -40 7 -5 -1 -6 3 -3 8 7 10 38 7 58 -5 7 -5 8 -3 2 7 -9 15 -13 29 -19 74
-3 17 -6 39 -8 50 -3 11 2 32 9 47 13 25 12 30 -3 46 -21 21 -26 38 -25 70 1
12 -3 22 -9 22 -6 0 -3 7 5 16 19 19 21 31 3 15 -11 -9 -14 -4 -15 22 -4 83
-7 107 -12 107 -4 0 -7 7 -7 15 0 8 4 12 8 10 4 -3 9 2 13 10 3 8 -1 18 -9 22
-13 8 -23 46 -28 113 -1 14 -6 31 -10 38 -5 6 -4 12 0 12 5 0 15 -6 23 -12 11
-10 11 -9 0 6 -8 11 -13 21 -12 23 2 3 0 8 -4 11 -4 4 -4 1 1 -7 5 -10 4 -12
-4 -7 -6 4 -9 12 -6 17 4 5 0 9 -7 9 -9 0 -9 3 2 10 8 5 11 10 7 10 -4 0 -2
10 4 23 11 19 10 20 -3 9 -13 -11 -15 -9 -15 15 0 14 -7 31 -15 37 -8 6 -13
18 -10 26 4 13 3 13 -10 2 -13 -10 -18 -10 -24 -1 -4 8 -3 9 4 5 8 -5 10 -1 5
9 -4 11 -8 13 -13 5 -7 -12 -40 -3 -40 11 0 12 -27 11 -35 -1z m-540 -459 c3
-5 1 -12 -4 -15 -5 -3 -11 1 -15 9 -6 16 9 21 19 6z m777 -223 c6 -15 -1 -38
-10 -38 -4 0 -7 11 -7 25 0 26 10 33 17 13z m-2527 -687 c3 -5 2 -12 -3 -15
-5 -3 -9 1 -9 9 0 17 3 19 12 6z m1665 1 c0 -13 -12 -22 -22 -16 -10 6 -1 24
13 24 5 0 9 -4 9 -8z m167 -282 c-1 -12 -5 -16 -10 -11 -5 5 -6 14 -3 20 11
16 15 13 13 -9z m-678 -137 c-8 -9 -8 -13 -1 -13 6 0 13 4 17 10 3 5 13 6 22
3 11 -5 14 -3 8 6 -6 10 -3 11 12 2 11 -6 23 -8 26 -5 3 3 8 0 13 -7 4 -7 3
-10 -4 -5 -6 3 -18 -1 -26 -10 -9 -8 -16 -11 -16 -5 0 5 -9 9 -20 8 -11 -1
-20 -6 -20 -11 0 -5 -3 -6 -7 -3 -3 4 -16 -2 -27 -12 -15 -14 -26 -17 -36 -11
-13 9 -13 10 0 11 8 1 18 1 22 0 4 0 5 5 2 13 -3 7 2 16 11 20 9 3 14 10 11
14 -3 5 1 9 9 9 11 0 12 -4 4 -14z m-681 -7 c7 -1 17 -8 22 -14 7 -8 7 -9 -1
-3 -8 6 -20 4 -34 -5 -16 -10 -29 -12 -46 -5 -17 7 -19 10 -6 10 9 1 17 8 17
17 0 11 5 14 18 9 9 -4 23 -8 30 -9z m632 -16 c0 -5 -5 -10 -11 -10 -5 0 -7 5
-4 10 3 6 8 10 11 10 2 0 4 -4 4 -10z m-542 -27 c-1 -5 4 -18 11 -31 12 -22
11 -23 -7 -13 -17 9 -20 23 -13 49 2 6 11 1 9 -5z m22 -75 c0 -13 -23 -5 -28
10 -2 7 2 10 12 6 9 -3 16 -11 16 -16z m280 -342 c0 -3 -4 -8 -10 -11 -5 -3
-10 -1 -10 4 0 6 5 11 10 11 6 0 10 -2 10 -4z"/>
<path d="M3828 3673 c7 -3 16 -2 19 1 4 3 -2 6 -13 5 -11 0 -14 -3 -6 -6z"/>
<path d="M3795 3649 c-10 -29 2 -36 23 -14 16 18 16 18 -2 5 -17 -14 -18 -13
-12 8 4 12 5 22 2 22 -2 0 -8 -9 -11 -21z"/>
<path d="M3736 3642 c-3 -5 1 -9 9 -9 8 0 12 4 9 9 -3 4 -7 8 -9 8 -2 0 -6 -4
-9 -8z"/>
<path d="M3765 3620 c-3 -5 -1 -10 4 -10 6 0 11 5 11 10 0 6 -2 10 -4 10 -3 0
-8 -4 -11 -10z"/>
<path d="M3700 3595 c-11 -13 -10 -14 4 -9 9 3 16 10 16 15 0 13 -6 11 -20 -6z"/>
<path d="M3615 3540 c-3 -5 -1 -10 4 -10 6 0 11 5 11 10 0 6 -2 10 -4 10 -3 0
-8 -4 -11 -10z"/>
<path d="M4055 3540 c-3 -5 -1 -10 4 -10 6 0 11 5 11 10 0 6 -2 10 -4 10 -3 0
-8 -4 -11 -10z"/>
<path d="M4106 3485 c-11 -8 -15 -15 -9 -15 6 0 16 7 23 15 16 19 11 19 -14 0z"/>
<path d="M1173 3474 c0 -9 4 -11 12 -4 7 5 14 9 16 7 2 -1 3 0 1 2 -7 11 -29
7 -29 -5z"/>
<path d="M3575 3480 c-3 -5 -1 -10 4 -10 6 0 11 5 11 10 0 6 -2 10 -4 10 -3 0
-8 -4 -11 -10z"/>
<path d="M1255 3460 c3 -5 8 -10 11 -10 2 0 4 5 4 10 0 6 -5 10 -11 10 -5 0
-7 -4 -4 -10z"/>
<path d="M1313 3439 c-2 -23 3 -25 10 -4 4 8 3 16 -1 19 -4 3 -9 -4 -9 -15z"/>
<path d="M3569 3458 c-1 -2 -3 -13 -4 -26 l-2 -23 23 22 c13 12 22 25 19 27
-3 3 -12 -3 -21 -14 -13 -16 -15 -17 -10 -1 4 13 0 25 -5 15z"/>
<path d="M1242 3442 c2 -8 6 -12 8 -11 3 1 15 -3 27 -10 19 -9 22 -9 17 3 -3
8 -13 13 -22 11 -9 -1 -21 3 -25 9 -6 7 -7 7 -5 -2z"/>
<path d="M3506 3442 c-3 -5 1 -9 9 -9 8 0 12 4 9 9 -3 4 -7 8 -9 8 -2 0 -6 -4
-9 -8z"/>
<path d="M4072 3437 c-8 -10 -6 -13 11 -14 12 0 16 1 9 4 -6 3 -10 9 -6 14 8
14 -2 11 -14 -4z"/>
<path d="M1090 3419 c0 -5 5 -7 10 -4 6 3 10 8 10 11 0 2 -4 4 -10 4 -5 0 -10
-5 -10 -11z"/>
<path d="M1370 3426 c0 -2 7 -7 16 -10 8 -3 12 -2 9 4 -6 10 -25 14 -25 6z"/>
<path d="M1360 3400 c-9 -6 -10 -10 -3 -10 6 0 15 5 18 10 8 12 4 12 -15 0z"/>
<path d="M3428 3388 c-10 -10 -14 -18 -9 -18 10 0 36 29 30 34 -2 1 -12 -6
-21 -16z"/>
<path d="M3470 3399 c0 -5 5 -7 10 -4 6 3 10 8 10 11 0 2 -4 4 -10 4 -5 0 -10
-5 -10 -11z"/>
<path d="M3494 3382 c3 -5 1 -12 -6 -14 -8 -3 -9 -6 -1 -11 6 -4 13 0 17 8 3
8 0 17 -6 21 -6 4 -8 3 -4 -4z"/>
<path d="M1407 3355 c-4 -8 -3 -16 1 -19 4 -3 9 4 9 15 2 23 -3 25 -10 4z"/>
<path d="M4080 3361 c0 -17 25 -30 40 -20 12 8 11 9 -5 7 -12 -2 -19 2 -17 10
1 6 -2 12 -8 12 -5 0 -10 -4 -10 -9z"/>
<path d="M1050 3346 c0 -3 9 -10 20 -16 11 -6 20 -8 20 -6 0 3 -9 10 -20 16
-11 6 -20 8 -20 6z"/>
<path d="M1510 3321 c0 -5 8 -15 18 -22 15 -12 16 -12 5 2 -7 9 -10 19 -6 22
3 4 1 7 -5 7 -7 0 -12 -4 -12 -9z"/>
<path d="M1035 3301 c-3 -5 -2 -12 3 -15 5 -3 9 1 9 9 0 17 -3 19 -12 6z"/>
<path d="M1465 3301 c-3 -5 0 -13 6 -17 7 -4 9 -3 5 4 -3 6 2 13 11 15 16 4
16 5 1 6 -9 0 -19 -3 -23 -8z"/>
<path d="M4119 3297 c-8 -7 -18 -21 -22 -32 -5 -14 -1 -12 14 8 11 15 26 24
31 21 7 -4 8 -2 4 4 -9 14 -7 14 -27 -1z"/>
<path d="M1077 3285 c3 -8 9 -12 14 -9 12 7 11 11 -5 17 -10 4 -13 1 -9 -8z"/>
<path d="M3393 3293 c9 -2 15 -9 12 -14 -9 -14 1 -11 13 4 8 10 5 13 -16 14
-15 0 -19 -1 -9 -4z"/>
<path d="M3357 3283 c-11 -10 -8 -20 7 -26 8 -3 17 0 20 8 3 10 0 12 -11 8
-11 -4 -14 -2 -9 5 8 13 3 16 -7 5z"/>
<path d="M1045 3260 c-16 -7 -17 -9 -3 -9 9 -1 20 4 23 9 7 11 7 11 -20 0z"/>
<path d="M1565 3260 c-3 -5 -2 -18 4 -27 7 -14 9 -12 8 10 -2 30 -3 31 -12 17z"/>
<path d="M1596 3262 c-3 -5 1 -9 9 -9 8 0 12 4 9 9 -3 4 -7 8 -9 8 -2 0 -6 -4
-9 -8z"/>
<path d="M3275 3249 c-4 -6 -5 -12 -2 -15 2 -3 7 2 10 11 7 17 1 20 -8 4z"/>
<path d="M4136 3247 c3 -10 9 -15 12 -12 3 3 0 11 -7 18 -10 9 -11 8 -5 -6z"/>
<path d="M1060 3240 c-8 -5 -10 -10 -5 -10 6 0 17 5 25 10 8 5 11 10 5 10 -5
0 -17 -5 -25 -10z"/>
<path d="M4093 3225 c0 -8 4 -12 9 -9 5 3 6 10 3 15 -9 13 -12 11 -12 -6z"/>
<path d="M3287 3205 c-4 -8 -3 -16 1 -19 4 -3 9 4 9 15 2 23 -3 25 -10 4z"/>
<path d="M4115 3209 c-4 -6 -5 -12 -2 -15 2 -3 7 2 10 11 7 17 1 20 -8 4z"/>
<path d="M1622 3196 c10 -7 14 -17 10 -21 -4 -5 -1 -5 6 -1 10 6 10 11 1 22
-6 8 -17 14 -23 14 -6 0 -3 -7 6 -14z"/>
<path d="M1600 3183 c0 -6 8 -17 18 -24 16 -13 16 -13 2 6 -8 11 -16 22 -17
24 -2 2 -3 0 -3 -6z"/>
<path d="M4106 3168 c3 -5 10 -6 15 -3 13 9 11 12 -6 12 -8 0 -12 -4 -9 -9z"/>
<path d="M3185 3160 c-3 -6 1 -7 9 -4 18 7 21 14 7 14 -6 0 -13 -4 -16 -10z"/>
<path d="M3245 3160 c6 -10 4 -12 -8 -7 -9 3 -18 3 -21 -1 -3 -4 4 -8 14 -9
23 -2 35 13 19 23 -8 5 -9 3 -4 -6z"/>
<path d="M1035 3150 c-3 -5 -1 -10 4 -10 6 0 11 5 11 10 0 6 -2 10 -4 10 -3 0
-8 -4 -11 -10z"/>
<path d="M1696 3138 c3 -5 10 -6 15 -3 13 9 11 12 -6 12 -8 0 -12 -4 -9 -9z"/>
<path d="M1676 3113 c-4 -10 -4 -14 0 -10 4 3 18 -6 30 -21 31 -35 31 -25 0
16 -20 28 -25 30 -30 15z"/>
<path d="M1715 3120 c-3 -5 -1 -10 4 -10 6 0 11 5 11 10 0 6 -2 10 -4 10 -3 0
-8 -4 -11 -10z"/>
<path d="M4115 3121 c-3 -5 -2 -12 3 -15 5 -3 9 1 9 9 0 17 -3 19 -12 6z"/>
<path d="M1735 3100 c-3 -5 -1 -10 4 -10 6 0 11 5 11 10 0 6 -2 10 -4 10 -3 0
-8 -4 -11 -10z"/>
<path d="M3156 3094 c-8 -20 -8 -24 2 -24 4 0 8 9 9 20 2 24 -3 26 -11 4z"/>
<path d="M3118 3093 c7 -3 16 -2 19 1 4 3 -2 6 -13 5 -11 0 -14 -3 -6 -6z"/>
<path d="M1780 3080 c-9 -6 -10 -10 -3 -10 6 0 15 5 18 10 8 12 4 12 -15 0z"/>
<path d="M4117 3084 c-3 -5 1 -15 9 -22 16 -14 18 -5 5 17 -5 7 -11 9 -14 5z"/>
<path d="M4156 3073 c-6 -14 -5 -15 5 -6 7 7 10 15 7 18 -3 3 -9 -2 -12 -12z"/>
<path d="M1055 3069 c-4 -6 -5 -12 -2 -15 2 -3 7 2 10 11 7 17 1 20 -8 4z"/>
<path d="M1030 3050 c6 -11 15 -20 20 -20 6 0 2 9 -7 20 -10 11 -19 20 -21 20
-1 0 2 -9 8 -20z"/>
<path d="M3118 3063 c7 -3 16 -2 19 1 4 3 -2 6 -13 5 -11 0 -14 -3 -6 -6z"/>
<path d="M3099 3041 c6 -10 9 -20 8 -22 -1 -2 0 -3 2 -1 11 7 8 31 -5 36 -11
4 -12 1 -5 -13z"/>
<path d="M1810 3040 c0 -5 5 -10 11 -10 5 0 7 5 4 10 -3 6 -8 10 -11 10 -2 0
-4 -4 -4 -10z"/>
<path d="M4146 3042 c-2 -4 4 -8 14 -8 10 0 16 4 14 8 -3 4 -9 8 -14 8 -5 0
-11 -4 -14 -8z"/>
<path d="M3070 3020 c0 -5 5 -10 10 -10 6 0 10 5 10 10 0 6 -4 10 -10 10 -5 0
-10 -4 -10 -10z"/>
<path d="M1796 3005 c4 -8 8 -15 10 -15 2 0 4 7 4 15 0 8 -4 15 -10 15 -5 0
-7 -7 -4 -15z"/>
<path d="M1860 3006 c0 -2 8 -10 18 -17 15 -13 16 -12 3 4 -13 16 -21 21 -21
13z"/>
<path d="M3038 3003 c7 -3 16 -2 19 1 4 3 -2 6 -13 5 -11 0 -14 -3 -6 -6z"/>
<path d="M1040 2980 c-13 -8 -12 -10 3 -10 9 0 17 5 17 10 0 12 -1 12 -20 0z"/>
<path d="M2999 2985 c-1 -3 -2 -8 -3 -12 -1 -5 -5 -15 -10 -23 -7 -12 -6 -13
4 -3 13 12 23 43 14 43 -2 0 -5 -2 -5 -5z"/>
<path d="M3041 2968 c-14 -23 -14 -23 8 -4 22 20 25 26 13 26 -4 0 -13 -10
-21 -22z"/>
<path d="M4166 2978 c3 -5 10 -6 15 -3 13 9 11 12 -6 12 -8 0 -12 -4 -9 -9z"/>
<path d="M1033 2941 c0 -11 5 -18 9 -15 4 3 5 11 1 19 -7 21 -12 19 -10 -4z"/>
<path d="M1936 2947 c3 -10 9 -15 12 -12 3 3 0 11 -7 18 -10 9 -11 8 -5 -6z"/>
<path d="M2916 2933 c-6 -14 -5 -15 5 -6 7 7 10 15 7 18 -3 3 -9 -2 -12 -12z"/>
<path d="M2953 2930 c-1 -11 2 -20 5 -20 4 0 8 9 9 20 1 11 -2 20 -5 20 -4 0
-8 -9 -9 -20z"/>
<path d="M4140 2945 c0 -7 30 -13 34 -7 3 4 -4 9 -15 9 -10 1 -19 0 -19 -2z"/>
<path d="M2990 2930 c-8 -5 -12 -12 -9 -15 4 -3 12 1 19 10 14 17 11 19 -10 5z"/>
<path d="M1906 2921 c-3 -5 0 -14 7 -19 10 -8 13 -6 14 9 2 19 -11 26 -21 10z"/>
<path d="M4151 2907 c-8 -10 -7 -14 2 -14 8 0 14 6 14 14 0 7 -1 13 -2 13 -2
0 -8 -6 -14 -13z"/>
<path d="M1020 2906 c0 -2 7 -6 15 -10 8 -3 15 -1 15 4 0 6 -7 10 -15 10 -8 0
-15 -2 -15 -4z"/>
<path d="M1940 2906 c0 -2 7 -7 16 -10 8 -3 12 -2 9 4 -6 10 -25 14 -25 6z"/>
<path d="M999 2898 c-6 -20 -6 -39 0 -42 4 -3 7 6 7 20 0 20 -4 32 -7 22z"/>
<path d="M1981 2884 c0 -11 3 -14 6 -6 3 7 2 16 -1 19 -3 4 -6 -2 -5 -13z"/>
<path d="M2900 2880 c-9 -6 -10 -10 -3 -10 6 0 15 5 18 10 8 12 4 12 -15 0z"/>
<path d="M4157 2873 c-10 -9 -9 -23 1 -23 5 0 9 7 9 15 0 17 -1 18 -10 8z"/>
<path d="M2335 2860 c3 -5 8 -10 11 -10 2 0 4 5 4 10 0 6 -5 10 -11 10 -5 0
-7 -4 -4 -10z"/>
<path d="M2535 2860 c-3 -5 -1 -10 4 -10 6 0 11 5 11 10 0 6 -2 10 -4 10 -3 0
-8 -4 -11 -10z"/>
<path d="M2615 2861 c-3 -5 -2 -12 3 -15 5 -3 9 1 9 9 0 17 -3 19 -12 6z"/>
<path d="M2695 2860 c-3 -5 -1 -10 4 -10 6 0 11 5 11 10 0 6 -2 10 -4 10 -3 0
-8 -4 -11 -10z"/>
<path d="M2753 2849 c-2 -23 3 -25 10 -4 4 8 3 16 -1 19 -4 3 -9 -4 -9 -15z"/>
<path d="M2275 2839 c3 -15 0 -19 -11 -15 -9 3 -12 2 -9 -5 4 -5 12 -8 18 -6
13 4 18 35 7 42 -5 3 -7 -4 -5 -16z"/>
<path d="M2210 2840 c0 -5 5 -10 11 -10 5 0 7 5 4 10 -3 6 -8 10 -11 10 -2 0
-4 -4 -4 -10z"/>
<path d="M2446 2839 c4 -8 30 -6 38 2 3 3 -5 5 -19 5 -13 0 -22 -3 -19 -7z"/>
<path d="M2577 2831 c-6 -23 -35 -25 -29 -2 1 7 -2 10 -8 6 -6 -4 -5 -13 3
-25 11 -19 12 -19 31 -1 10 10 16 25 14 32 -3 8 -7 4 -11 -10z"/>
<path d="M2653 2842 c-9 -5 -6 -12 10 -21 19 -13 21 -12 10 1 -7 8 -10 18 -6
21 9 9 1 8 -14 -1z"/>
<path d="M2071 2821 c-6 -10 -7 -22 -3 -26 4 -4 0 -5 -8 -3 -8 3 -14 10 -13
15 1 5 -4 10 -11 10 -8 0 -13 -7 -11 -16 1 -10 12 -16 31 -16 16 0 34 -3 40
-7 7 -5 14 -2 17 7 4 10 1 12 -10 8 -10 -4 -14 -2 -9 5 3 6 2 13 -4 17 -6 4
-8 11 -5 16 4 5 4 9 1 9 -3 0 -10 -8 -15 -19z"/>
<path d="M2157 2834 c-8 -9 23 -54 37 -54 6 0 4 5 -4 10 -8 5 -10 10 -5 10 6
0 2 5 -8 11 -9 6 -15 14 -12 20 7 10 2 12 -8 3z"/>
<path d="M2786 2825 c-10 -7 -16 -17 -15 -22 2 -4 14 2 26 15 25 24 18 29 -11
7z"/>
<path d="M2356 2818 c3 -5 10 -6 15 -3 13 9 11 12 -6 12 -8 0 -12 -4 -9 -9z"/>
<path d="M2433 2818 c3 -10 2 -20 -3 -23 -5 -3 -11 3 -13 12 -4 14 -5 13 -6
-4 -1 -27 11 -30 29 -8 11 13 11 18 0 28 -10 10 -12 9 -7 -5z"/>
<path d="M2614 2815 c-3 -8 -11 -12 -18 -8 -6 3 -7 2 -3 -2 14 -16 36 -14 30
2 -5 13 -2 13 20 -2 15 -9 27 -15 27 -12 0 2 -11 12 -25 21 -23 15 -26 15 -31
1z"/>
<path d="M2696 2814 c-23 -23 -20 -30 4 -9 11 10 20 20 20 22 0 7 -9 2 -24
-13z"/>
<path d="M998 2813 c7 -3 16 -2 19 1 4 3 -2 6 -13 5 -11 0 -14 -3 -6 -6z"/>
<path d="M2226 2808 c5 -8 2 -9 -10 -5 -9 4 -15 3 -11 -2 6 -11 45 -10 45 0 0
4 -7 10 -16 13 -10 4 -13 2 -8 -6z"/>
<path d="M2376 2801 c-17 -19 -17 -19 0 -17 9 2 18 10 20 19 3 21 1 21 -20 -2z"/>
<path d="M1017 2757 c-3 -8 1 -14 8 -14 7 0 11 6 8 14 -3 7 -6 13 -8 13 -2 0
-5 -6 -8 -13z"/>
<path d="M4175 2740 c-3 -5 -1 -10 4 -10 6 0 11 5 11 10 0 6 -2 10 -4 10 -3 0
-8 -4 -11 -10z"/>
<path d="M1021 2714 c0 -11 3 -14 6 -6 3 7 2 16 -1 19 -3 4 -6 -2 -5 -13z"/>
<path d="M1025 2679 c-4 -6 -5 -12 -2 -15 2 -3 7 2 10 11 7 17 1 20 -8 4z"/>
<path d="M4085 2680 c-3 -6 1 -7 9 -4 18 7 21 14 7 14 -6 0 -13 -4 -16 -10z"/>
<path d="M4120 2686 c0 -2 7 -7 16 -10 8 -3 12 -2 9 4 -6 10 -25 14 -25 6z"/>
<path d="M4106 2657 c3 -10 9 -15 12 -12 3 3 0 11 -7 18 -10 9 -11 8 -5 -6z"/>
<path d="M1040 2640 c0 -5 5 -10 11 -10 5 0 7 5 4 10 -3 6 -8 10 -11 10 -2 0
-4 -4 -4 -10z"/>
<path d="M1074 2608 c2 -15 0 -29 -5 -32 -5 -2 -4 -3 2 -2 15 3 20 29 8 47 -7
10 -8 6 -5 -13z"/>
<path d="M1037 2609 c7 -7 15 -10 18 -7 3 3 -2 9 -12 12 -14 6 -15 5 -6 -5z"/>
<path d="M4030 2598 c0 -11 12 -10 30 2 12 7 10 9 -8 7 -12 0 -22 -5 -22 -9z"/>
<path d="M4116 2587 c3 -10 9 -15 12 -12 3 3 0 11 -7 18 -10 9 -11 8 -5 -6z"/>
<path d="M4056 2581 c-3 -5 1 -14 8 -20 10 -9 16 -9 21 -1 4 6 1 9 -7 8 -7 -2
-12 3 -10 10 2 14 -4 16 -12 3z"/>
<path d="M4020 2565 c7 -8 17 -15 22 -15 5 0 3 7 -6 15 -8 8 -18 15 -22 15 -3
0 -1 -7 6 -15z"/>
<path d="M1093 2525 c0 -8 4 -12 9 -9 5 3 6 10 3 15 -9 13 -12 11 -12 -6z"/>
<path d="M3967 2516 c-4 -10 -1 -13 8 -9 8 3 12 9 9 14 -7 12 -11 11 -17 -5z"/>
<path d="M1100 2500 c-9 -6 -10 -10 -3 -10 6 0 15 5 18 10 8 12 4 12 -15 0z"/>
<path d="M1130 2500 c0 -5 5 -10 11 -10 5 0 7 5 4 10 -3 6 -8 10 -11 10 -2 0
-4 -4 -4 -10z"/>
<path d="M3994 2495 c-4 -8 -11 -12 -18 -8 -6 3 -7 2 -3 -2 14 -16 36 -14 30
3 -5 11 -3 13 7 7 9 -5 11 -4 6 3 -10 16 -15 15 -22 -3z"/>
<path d="M1066 2458 c3 -5 10 -6 15 -3 13 9 11 12 -6 12 -8 0 -12 -4 -9 -9z"/>
<path d="M3950 2463 c0 -5 5 -15 10 -23 7 -12 9 -10 7 8 -1 19 -17 33 -17 15z"/>
<path d="M1109 2443 c-13 -17 -13 -17 6 -3 11 8 22 16 24 17 2 2 0 3 -6 3 -6
0 -17 -8 -24 -17z"/>
<path d="M1153 2445 c0 -7 6 -11 14 -8 9 4 11 0 7 -11 -3 -9 -4 -16 -1 -16 15
0 14 31 -2 39 -13 7 -18 6 -18 -4z"/>
<path d="M3909 2433 c-12 -16 -12 -17 2 -6 12 10 18 10 28 0 10 -9 11 -8 6 6
-4 9 -11 17 -15 17 -4 0 -14 -8 -21 -17z"/>
<path d="M1126 2398 c3 -5 10 -6 15 -3 13 9 11 12 -6 12 -8 0 -12 -4 -9 -9z"/>
<path d="M3902 2401 c-8 -5 1 -7 22 -7 35 1 40 8 8 12 -9 2 -23 0 -30 -5z"/>
<path d="M1189 2363 c-13 -16 -12 -17 4 -4 9 7 17 15 17 17 0 8 -8 3 -21 -13z"/>
<path d="M3870 2369 c0 -5 5 -7 10 -4 6 3 10 8 10 11 0 2 -4 4 -10 4 -5 0 -10
-5 -10 -11z"/>
<path d="M1395 2362 c3 -3 -3 -11 -13 -18 -16 -12 -15 -13 5 -11 12 0 19 5 17
9 -3 4 0 8 5 8 6 0 11 4 11 8 0 5 -7 9 -15 9 -8 0 -13 -3 -10 -5z"/>
<path d="M1350 2349 c0 -5 5 -7 10 -4 6 3 10 8 10 11 0 2 -4 4 -10 4 -5 0 -10
-5 -10 -11z"/>
<path d="M3388 2338 c6 -6 8 -18 5 -27 -4 -11 -1 -10 10 4 14 17 18 18 27 5 5
-8 10 -10 10 -5 0 18 -15 30 -38 31 -16 1 -20 -2 -14 -8z"/>
<path d="M3447 2339 c6 -6 9 -19 6 -28 -4 -14 -3 -14 6 -1 15 21 14 27 -6 35
-14 5 -15 3 -6 -6z"/>
<path d="M3723 2343 c-7 -3 -13 -9 -13 -15 0 -6 7 -5 16 3 15 12 16 11 10 -11
-5 -17 -4 -20 2 -12 11 16 21 15 42 -1 13 -10 13 -10 2 4 -10 14 -10 18 3 23
8 3 15 0 15 -6 0 -6 3 -9 6 -5 3 3 3 11 -1 17 -5 8 -13 7 -29 -3 -18 -12 -24
-13 -32 -2 -5 7 -15 11 -21 8z"/>
<path d="M1417 2325 c-4 -8 -3 -16 1 -19 4 -3 9 4 9 15 2 23 -3 25 -10 4z"/>
<path d="M1477 2326 c-3 -8 2 -20 11 -27 14 -11 15 -11 5 0 -6 7 -9 20 -6 27
3 8 3 14 0 14 -3 0 -7 -6 -10 -14z"/>
<path d="M3553 2320 c1 -21 10 -18 13 5 1 8 -2 15 -6 15 -5 0 -8 -9 -7 -20z"/>
<path d="M3605 2330 c-3 -6 1 -7 10 -4 11 5 14 2 9 -12 -5 -15 -4 -16 4 -4 11
15 7 30 -8 30 -5 0 -12 -4 -15 -10z"/>
<path d="M3677 2327 c-3 -8 1 -14 8 -14 7 0 11 6 8 14 -3 7 -6 13 -8 13 -2 0
-5 -6 -8 -13z"/>
<path d="M1330 2322 c0 -4 10 -9 22 -9 18 -2 20 0 8 7 -18 12 -30 13 -30 2z"/>
<path d="M3821 2316 c-9 -11 -9 -16 0 -22 7 -4 9 -3 5 4 -3 6 2 15 11 21 10 6
13 11 7 11 -6 0 -17 -6 -23 -14z"/>
<path d="M3412 2300 c2 -10 -4 -15 -19 -14 -13 1 -23 -2 -23 -6 0 -4 13 -7 29
-6 27 1 35 16 17 33 -4 4 -6 1 -4 -7z"/>
<path d="M3570 2296 c0 -2 8 -10 18 -17 15 -13 16 -12 3 4 -13 16 -21 21 -21
13z"/>
<path d="M3270 2282 c0 -5 7 -9 15 -9 8 0 12 4 9 9 -3 4 -9 8 -15 8 -5 0 -9
-4 -9 -8z"/>
<path d="M3470 2285 c0 -7 30 -13 34 -7 3 4 -4 9 -15 9 -10 1 -19 0 -19 -2z"/>
<path d="M3610 2280 c0 -5 5 -10 11 -10 5 0 7 5 4 10 -3 6 -8 10 -11 10 -2 0
-4 -4 -4 -10z"/>
<path d="M1520 2260 c-9 -6 -10 -10 -3 -10 6 0 15 5 18 10 8 12 4 12 -15 0z"/>
<path d="M3361 2244 c0 -11 3 -14 6 -6 3 7 2 16 -1 19 -3 4 -6 -2 -5 -13z"/>
<path d="M1565 2201 c-10 -18 17 -23 33 -7 11 10 12 16 4 16 -7 0 -12 -4 -12
-10 0 -5 -5 -10 -11 -10 -5 0 -7 5 -4 10 3 6 4 10 1 10 -3 0 -7 -4 -11 -9z"/>
<path d="M1535 2170 c-6 -10 11 -50 21 -50 3 0 2 5 -2 12 -4 6 1 17 11 25 11
7 14 13 9 13 -6 0 -16 -6 -23 -12 -11 -11 -13 -10 -8 5 7 18 2 23 -8 7z"/>
<path d="M3355 2170 c3 -5 8 -10 11 -10 2 0 4 5 4 10 0 6 -5 10 -11 10 -5 0
-7 -4 -4 -10z"/>
<path d="M3406 2158 c3 -5 10 -6 15 -3 13 9 11 12 -6 12 -8 0 -12 -4 -9 -9z"/>
<path d="M3375 2149 c-4 -6 1 -16 11 -23 10 -8 14 -19 10 -27 -4 -8 0 -5 8 5
9 11 16 25 15 30 0 6 -3 5 -6 -2 -4 -10 -8 -10 -19 -1 -8 6 -11 15 -8 20 3 5
3 9 0 9 -3 0 -8 -5 -11 -11z"/>
<path d="M1475 2091 c-3 -5 -2 -12 3 -15 5 -3 9 1 9 9 0 17 -3 19 -12 6z"/>
<path d="M3475 2049 c-4 -6 -5 -12 -2 -15 2 -3 7 2 10 11 7 17 1 20 -8 4z"/>
<path d="M1453 2029 c-2 -23 3 -25 10 -4 4 8 3 16 -1 19 -4 3 -9 -4 -9 -15z"/>
<path d="M3461 2010 c0 -14 28 -72 29 -59 0 4 -7 22 -15 40 -8 19 -14 27 -14
19z"/>
<path d="M3493 1995 c0 -8 4 -12 9 -9 5 3 6 10 3 15 -9 13 -12 11 -12 -6z"/>
<path d="M3534 1962 c4 -3 14 -7 22 -8 9 -1 13 0 10 4 -4 3 -14 7 -22 8 -9 1
-13 0 -10 -4z"/>
<path d="M2076 1851 c-3 -5 1 -11 9 -14 9 -4 12 -1 8 9 -6 16 -10 17 -17 5z"/>
<path d="M2780 1851 c-8 -6 -18 -7 -22 -5 -4 3 -8 0 -8 -5 0 -15 13 -14 36 4
21 16 17 20 -6 6z"/>
<path d="M1510 1830 c0 -5 5 -10 11 -10 5 0 7 5 4 10 -3 6 -8 10 -11 10 -2 0
-4 -4 -4 -10z"/>
<path d="M2801 1832 c-1 -8 -6 -10 -13 -6 -7 4 -9 3 -5 -2 10 -11 58 -14 51
-2 -3 4 -9 6 -14 3 -4 -3 -11 1 -13 7 -4 10 -6 10 -6 0z"/>
<path d="M2066 1817 c3 -10 9 -15 12 -12 3 3 0 11 -7 18 -10 9 -11 8 -5 -6z"/>
<path d="M1513 1795 c0 -7 7 -11 15 -7 11 4 13 1 7 -8 -5 -9 -4 -11 3 -6 16
10 15 14 -6 25 -14 7 -19 6 -19 -4z"/>
<path d="M2690 1800 c0 -5 5 -10 11 -10 5 0 7 5 4 10 -3 6 -8 10 -11 10 -2 0
-4 -4 -4 -10z"/>
<path d="M2759 1793 c-13 -16 -12 -17 4 -4 9 7 17 15 17 17 0 8 -8 3 -21 -13z"/>
<path d="M3460 1806 c0 -2 8 -10 18 -17 15 -13 16 -12 3 4 -13 16 -21 21 -21
13z"/>
<path d="M3510 1798 c0 -4 4 -8 9 -8 6 0 12 4 15 8 3 5 -1 9 -9 9 -8 0 -15 -4
-15 -9z"/>
<path d="M1969 1797 c0 -1 -2 -10 -4 -20 -2 -10 -10 -26 -18 -35 -28 -33 -38
-60 -25 -68 7 -4 10 -4 6 1 -9 10 20 67 31 61 4 -3 8 1 9 9 1 8 3 22 4 30 1 9
7 14 14 11 8 -3 15 -2 18 2 3 4 -4 9 -15 9 -10 1 -19 1 -20 0z"/>
<path d="M2835 1791 c-3 -5 0 -13 6 -17 7 -4 9 -3 5 4 -3 5 0 13 6 15 9 4 10
6 1 6 -6 1 -14 -3 -18 -8z"/>
<path d="M2884 1792 c-12 -8 -12 -48 1 -59 4 -5 5 0 2 10 -4 10 -2 27 3 38 12
21 11 22 -6 11z"/>
<path d="M3450 1780 c0 -5 5 -10 11 -10 5 0 7 5 4 10 -3 6 -8 10 -11 10 -2 0
-4 -4 -4 -10z"/>
<path d="M2015 1770 c-4 -6 -12 -7 -18 -4 -7 4 -9 4 -5 -1 4 -4 2 -15 -4 -24
-10 -12 -7 -12 8 2 11 9 23 15 26 12 2 -3 5 2 5 10 0 18 -3 19 -12 5z"/>
<path d="M1540 1755 c-11 -13 -10 -14 5 -9 14 6 16 4 10 -7 -5 -8 -4 -11 0 -6
12 10 15 37 5 37 -4 0 -13 -7 -20 -15z"/>
<path d="M2162 1743 c11 -3 15 -11 12 -21 -5 -14 -4 -14 4 -2 13 18 6 30 -16
29 -16 -1 -16 -2 0 -6z"/>
<path d="M2923 1734 c9 -3 15 -10 12 -15 -4 -5 -1 -9 5 -9 19 0 5 25 -16 27
-16 2 -16 1 -1 -3z"/>
<path d="M1575 1721 c3 -5 -3 -12 -12 -14 -10 -3 -6 -4 9 -4 21 1 24 4 16 14
-12 15 -22 18 -13 4z"/>
<path d="M2195 1720 c-3 -5 -1 -10 4 -10 6 0 11 5 11 10 0 6 -2 10 -4 10 -3 0
-8 -4 -11 -10z"/>
<path d="M2913 1695 c0 -8 4 -12 9 -9 5 3 6 10 3 15 -9 13 -12 11 -12 -6z"/>
<path d="M2198 1678 c2 -10 6 -18 7 -18 1 0 5 8 7 18 3 11 0 19 -7 19 -7 0
-10 -8 -7 -19z"/>
<path d="M3381 1686 c-9 -10 -8 -15 4 -19 8 -4 12 -13 9 -21 -3 -8 0 -17 7
-22 8 -4 10 -3 5 5 -4 6 -2 19 5 27 10 12 10 15 -1 12 -7 -2 -15 3 -18 11 -3
9 0 11 8 6 9 -5 11 -4 6 3 -9 15 -11 15 -25 -2z"/>
<path d="M1566 1678 c3 -5 10 -6 15 -3 13 9 11 12 -6 12 -8 0 -12 -4 -9 -9z"/>
<path d="M2630 1681 c0 -5 7 -12 16 -15 14 -5 15 -4 4 9 -14 17 -20 19 -20 6z"/>
<path d="M3420 1686 c0 -2 8 -10 18 -17 15 -13 16 -12 3 4 -13 16 -21 21 -21
13z"/>
<path d="M1581 1660 c-9 -5 -4 -7 13 -7 29 0 32 2 13 10 -8 3 -20 2 -26 -3z"/>
<path d="M1917 1653 c-10 -9 -9 -23 1 -23 5 0 9 7 9 15 0 17 -1 18 -10 8z"/>
<path d="M2955 1650 c-3 -5 -1 -10 4 -10 6 0 11 5 11 10 0 6 -2 10 -4 10 -3 0
-8 -4 -11 -10z"/>
<path d="M3356 1652 c-3 -5 1 -9 9 -9 8 0 12 4 9 9 -3 4 -7 8 -9 8 -2 0 -6 -4
-9 -8z"/>
<path d="M2914 1628 l-19 -23 23 19 c21 18 27 26 19 26 -2 0 -12 -10 -23 -22z"/>
<path d="M1594 1608 c-19 -23 -19 -23 2 -5 11 9 24 14 29 10 4 -5 5 -2 1 5 -9
16 -10 16 -32 -10z"/>
<path d="M1870 1610 c-6 -11 -8 -20 -6 -20 3 0 10 9 16 20 6 11 8 20 6 20 -3
0 -10 -9 -16 -20z"/>
<path d="M2980 1611 c13 -26 13 -34 -2 -25 -7 4 -9 3 -5 -1 4 -5 14 -10 22
-11 13 -2 12 2 0 27 -9 16 -18 29 -21 29 -2 0 0 -9 6 -19z"/>
<path d="M3339 1628 c-6 -21 -5 -39 1 -43 5 -3 7 4 5 16 -3 15 0 19 10 15 8
-3 15 -1 15 4 0 8 -28 15 -31 8z"/>
<path d="M2213 1592 c-1 -22 0 -24 9 -8 6 10 6 22 2 26 -5 5 -10 -3 -11 -18z"/>
<path d="M2607 1600 c3 -11 9 -22 13 -25 5 -3 6 4 3 15 -3 11 -9 22 -13 25 -5
3 -6 -4 -3 -15z"/>
<path d="M1815 1599 c-4 -6 -4 -13 -1 -16 3 -4 6 -1 6 7 0 10 3 10 15 0 13
-11 14 -10 9 4 -7 18 -20 21 -29 5z"/>
<path d="M2235 1570 c3 -5 8 -10 11 -10 2 0 4 5 4 10 0 6 -5 10 -11 10 -5 0
-7 -4 -4 -10z"/>
<path d="M3306 1565 c-11 -8 -15 -15 -9 -15 6 0 16 7 23 15 16 19 11 19 -14 0z"/>
<path d="M3030 1560 c0 -5 5 -10 11 -10 5 0 7 5 4 10 -3 6 -8 10 -11 10 -2 0
-4 -4 -4 -10z"/>
<path d="M1715 1549 c-4 -6 -5 -12 -2 -15 2 -3 7 2 10 11 7 17 1 20 -8 4z"/>
<path d="M2250 1539 c0 -5 5 -7 10 -4 6 3 10 8 10 11 0 2 -4 4 -10 4 -5 0 -10
-5 -10 -11z"/>
<path d="M2996 1538 c3 -5 10 -6 15 -3 13 9 11 12 -6 12 -8 0 -12 -4 -9 -9z"/>
<path d="M3274 1522 c3 -5 0 -13 -6 -15 -9 -4 -10 -6 -1 -6 17 -1 25 16 12 25
-7 4 -9 3 -5 -4z"/>
<path d="M2575 1500 c-4 -6 -1 -9 7 -8 7 2 12 -2 11 -8 -1 -6 5 -11 13 -11 11
0 11 4 -3 19 -19 21 -20 21 -28 8z"/>
<path d="M3210 1500 c0 -5 5 -10 11 -10 5 0 7 5 4 10 -3 6 -8 10 -11 10 -2 0
-4 -4 -4 -10z"/>
<path d="M3036 1482 c-3 -5 1 -9 9 -9 8 0 12 4 9 9 -3 4 -7 8 -9 8 -2 0 -6 -4
-9 -8z"/>
<path d="M3275 1481 c-3 -5 -2 -12 3 -15 5 -3 9 1 9 9 0 17 -3 19 -12 6z"/>
<path d="M2550 1470 c-9 -6 -10 -10 -3 -10 6 0 15 5 18 10 8 12 4 12 -15 0z"/>
<path d="M2267 1459 c7 -7 15 -10 18 -7 3 3 -2 9 -12 12 -14 6 -15 5 -6 -5z"/>
<path d="M2500 1395 c-7 -9 -11 -17 -9 -20 3 -2 10 5 17 15 14 24 10 26 -8 5z"/>
<path d="M2416 1391 c-4 -5 3 -7 14 -4 23 6 26 13 6 13 -8 0 -17 -4 -20 -9z"/>
<path d="M2356 1378 c3 -5 10 -6 15 -3 13 9 11 12 -6 12 -8 0 -12 -4 -9 -9z"/>
</g>
</svg>
